<svg height="496pt" viewBox="-80 0 496 496" width="496pt" xmlns="http://www.w3.org/2000/svg"><path d="m24 8h288c8.835938 0 16 7.164062 16 16v464h-320v-464c0-8.835938 7.164062-16 16-16zm0 0" fill="#c6c5ca"/><path d="m128 304h40v40h-40zm0 0" fill="#fff"/><path d="m88 304h40v40h-40zm0 0" fill="#acabb1"/><path d="m128 344h40v40h-40zm0 0" fill="#ff5023"/><path d="m48 344h40v40h-40zm0 0" fill="#fff"/><path d="m88 344h40v40h-40zm0 0" fill="#acabb1"/><path d="m48 304h40v40h-40zm0 0" fill="#d80027"/><path d="m224 344h40v40h-40zm0 0" fill="#fff"/><path d="m288 56h-240v168h240zm-24 88v-64zm0 0" fill="#1a6fb0"/><path d="m288 344v-40h-88v40zm0 0" fill="#3e3d42"/><path d="m8 488h320v-32c0-17.671875-14.328125-32-32-32h-256c-17.671875 0-32 14.328125-32 32zm0 0" fill="#4e901e"/><path d="m48 232h240c4.417969 0 8-3.582031 8-8v-168c0-4.417969-3.582031-8-8-8h-240c-4.417969 0-8 3.582031-8 8v168c0 4.417969 3.582031 8 8 8zm8-168h224v152h-224zm0 0"/><path d="m48 392h120c4.417969 0 8-3.582031 8-8v-80c0-4.417969-3.582031-8-8-8h-120c-4.417969 0-8 3.582031-8 8v80c0 4.417969 3.582031 8 8 8zm48-40h24v24h-24zm-16 24h-24v-24h24zm56-24h24v24h-24zm24-16h-24v-24h24zm-40 0h-24v-24h24zm-40 0h-24v-24h24zm0 0"/><path d="m288 296h-88c-4.417969 0-8 3.582031-8 8v40c0 4.417969 3.582031 8 8 8h16v32c0 4.417969 3.582031 8 8 8h40c4.417969 0 8-3.582031 8-8v-32h16c4.417969 0 8-3.582031 8-8v-40c0-4.417969-3.582031-8-8-8zm-32 80h-24v-24h24zm24-40h-72v-24h72zm0 0"/><path d="m312 0h-288c-13.253906 0-24 10.746094-24 24v464c0 4.417969 3.582031 8 8 8h320c4.417969 0 8-3.582031 8-8v-464c0-13.253906-10.746094-24-24-24zm-288 16h288c4.417969 0 8 3.582031 8 8v400.207031c-6.882812-5.292969-15.316406-8.175781-24-8.207031h-256c-8.683594.03125-17.117188 2.914062-24 8.207031v-400.207031c0-4.417969 3.582031-8 8-8zm296 464h-304v-24c0-13.253906 10.746094-24 24-24h256c13.253906 0 24 10.746094 24 24zm0 0"/><path d="m48 272h240c4.417969 0 8-3.582031 8-8s-3.582031-8-8-8h-240c-4.417969 0-8 3.582031-8 8s3.582031 8 8 8zm0 0"/><path d="m264 72h-64c-4.417969 0-8 3.582031-8 8s3.582031 8 8 8h56v56c0 4.417969 3.582031 8 8 8s8-3.582031 8-8v-64c0-4.417969-3.582031-8-8-8zm0 0"/><path d="m264 160c-4.417969 0-8 3.582031-8 8v8c0 4.417969 3.582031 8 8 8s8-3.582031 8-8v-8c0-4.417969-3.582031-8-8-8zm0 0"/></svg>