<svg viewBox="0 -4 464 464" xmlns="http://www.w3.org/2000/svg"><path d="m208 0c-53.019531 0-96 42.980469-96 96 0-53.019531-42.980469-96-96-96h-16v16c0 53.019531 42.980469 96 96 96h32c6.042969-.015625 12.066406-.601562 18-1.742188 6.398438-2.195312 12.902344-4.210937 19.625-5.929687 35.402344-15.082031 58.378906-49.847656 58.375-88.328125v-16zm0 0" fill="#3d7606"/><path d="m112 120c-2.121094 0-4.15625-.84375-5.65625-2.34375l-50.34375-50.34375c-3.125-3.125-3.125-8.1875 0-11.3125s8.1875-3.125 11.3125 0l39.03125 39.03125c3.125 3.125 8.1875 3.125 11.3125 0l63.03125-63.03125c3.125-3.125 8.1875-3.125 11.3125 0s3.125 8.1875 0 11.3125l-74.34375 74.34375c-1.5 1.5-3.535156 2.34375-5.65625 2.34375zm0 0" fill="#468707"/><path d="m395.457031 148c40.675781-12.140625 68.546875-49.550781 68.542969-92v-16h-16c-45.992188.015625-85.507812 32.648438-94.222656 77.808594" fill="#3d7606"/><path d="m376.003906 116.683594 60.6875-60.683594c3.125-3.125 8.1875-3.125 11.3125 0 3.125 3.121094 3.125 8.1875 0 11.3125l-60.6875 60.6875c-3.125 3.125-8.1875 3.125-11.3125 0s-3.125-8.191406 0-11.316406zm0 0" fill="#468707"/><path d="m443.296875 200h-.410156c-8.367188-.121094-15.878907-5.164062-19.160157-12.863281-24.695312-54.992188-102.054687-99.136719-191.726562-99.136719-22.394531-.003906-44.699219 2.792969-66.398438 8.328125-6.722656 1.71875-13.242187 3.734375-19.625 5.929687-50.351562 17.300782-89.480468 48.695313-105.730468 84.878907-3.273438 7.691406-10.773438 12.734375-19.132813 12.863281h-.410156c-11.433594 0-20.703125 9.269531-20.703125 20.703125v6.59375c0 11.433594 9.269531 20.703125 20.703125 20.703125h.410156c8.382813.105469 15.914063 5.148438 19.199219 12.863281 20.28125 45.257813 76.3125 83.136719 145.480469 95.136719-9.984375-58.539062 24.394531-115.5625 80.820312-134.0625 56.429688-18.5 117.894531 7.101562 144.507813 60.191406 4.941406-6.625 9.167968-13.75 12.605468-21.265625 3.28125-7.699219 10.792969-12.742187 19.160157-12.863281h.410156c11.433594 0 20.703125-9.269531 20.703125-20.703125v-6.59375c0-11.433594-9.269531-20.703125-20.703125-20.703125zm0 0" fill="#f0b706"/><g fill="#ffc206"><path d="m96 184c4.417969 0 8 3.582031 8 8s-3.582031 8-8 8-8-3.582031-8-8 3.582031-8 8-8zm0 0"/><path d="m152 128c4.417969 0 8 3.582031 8 8s-3.582031 8-8 8-8-3.582031-8-8 3.582031-8 8-8zm0 0"/><path d="m224 144c4.417969 0 8 3.582031 8 8s-3.582031 8-8 8-8-3.582031-8-8 3.582031-8 8-8zm0 0"/><path d="m304 152c4.417969 0 8 3.582031 8 8s-3.582031 8-8 8-8-3.582031-8-8 3.582031-8 8-8zm0 0"/></g><path d="m424 336c0 66.273438-53.726562 120-120 120s-120-53.726562-120-120 53.726562-120 120-120 120 53.726562 120 120zm0 0" fill="#f9eda8"/><path d="m400 336c0 53.019531-42.980469 96-96 96s-96-42.980469-96-96 42.980469-96 96-96 96 42.980469 96 96zm0 0" fill="#f5c763"/><path d="m384 328h-60.6875l42.910156-42.910156c3.125-3.125 3.125-8.191406 0-11.3125-3.121094-3.125-8.1875-3.125-11.3125 0l-42.910156 42.910156v-60.6875c0-4.417969-3.582031-8-8-8s-8 3.582031-8 8v60.6875l-42.910156-42.910156c-3.125-3.125-8.191406-3.125-11.3125 0-3.125 3.121094-3.125 8.1875 0 11.3125l42.910156 42.910156h-60.6875c-4.417969 0-8 3.582031-8 8s3.582031 8 8 8h60.6875l-42.910156 42.910156c-3.125 3.125-3.125 8.191406 0 11.3125 3.121094 3.125 8.1875 3.125 11.3125 0l42.910156-42.910156v60.6875c0 4.417969 3.582031 8 8 8s8-3.582031 8-8v-60.6875l42.910156 42.910156c3.125 3.125 8.191406 3.125 11.3125 0 3.125-3.121094 3.125-8.1875 0-11.3125l-42.910156-42.910156h60.6875c4.417969 0 8-3.582031 8-8s-3.582031-8-8-8zm0 0" fill="#f9eda8"/></svg>